HIERARCHY
ROOT joint_Root
{
	OFFSET 0.0 0.0 0.0
	CHANNELS 6 Xposition Yposition Zposition Zrotation Xrotation Yrotation 
	JOINT Hips
	{
		OFFSET -17.1583 93.1646 452.98
		CHANNELS 6 Xposition Yposition Zposition Zrotation Xrotation Yrotation 
		JOINT Spine
		{
			OFFSET 15.7357 0.0 0.0
			CHANNELS 6 Xposition Yposition Zposition Zrotation Xrotation Yrotation 
			JOINT Chest
			{
				OFFSET 8.98455 -0.406207 0.0
				CHANNELS 6 Xposition Yposition Zposition Zrotation Xrotation Yrotation 
				JOINT Neck
				{
					OFFSET 16.3773 0.0 0.0
					CHANNELS 6 Xposition Yposition Zposition Zrotation Xrotation Yrotation 
					JOINT Head
					{
						OFFSET 6.45672 0.0 0.0
						CHANNELS 6 Xposition Yposition Zposition Zrotation Xrotation Yrotation 
						End Site
						{
							OFFSET 0.0 0.0 0.0
						}
					}
				}
				JOINT Shoulder_L
				{
					OFFSET 12.9942 -0.242716 4.98039
					CHANNELS 6 Xposition Yposition Zposition Zrotation Xrotation Yrotation 
					JOINT UpperArm_L
					{
						OFFSET 5.34809 0.0 0.0
						CHANNELS 6 Xposition Yposition Zposition Zrotation Xrotation Yrotation 
						JOINT LowerArm_L
						{
							OFFSET 24.3286 1.87007e-05 0.0
							CHANNELS 6 Xposition Yposition Zposition Zrotation Xrotation Yrotation 
							JOINT Hand_L
							{
								OFFSET 22.2916 0.0 0.0
								CHANNELS 6 Xposition Yposition Zposition Zrotation Xrotation Yrotation 
								End Site
								{
									OFFSET 0.0 0.0 0.0
								}
							}
						}
					}
				}
				JOINT Shoulder_R
				{
					OFFSET 12.9945 -0.242716 -4.98039
					CHANNELS 6 Xposition Yposition Zposition Zrotation Xrotation Yrotation 
					JOINT UpperArm_R
					{
						OFFSET -5.34813 0.0 0.0
						CHANNELS 6 Xposition Yposition Zposition Zrotation Xrotation Yrotation 
						JOINT LowerArm_R
						{
							OFFSET -24.3289 0.000322201 0.0
							CHANNELS 6 Xposition Yposition Zposition Zrotation Xrotation Yrotation 
							JOINT Hand_R
							{
								OFFSET -22.2915 -0.000108084 0.0
								CHANNELS 6 Xposition Yposition Zposition Zrotation Xrotation Yrotation 
								End Site
								{
									OFFSET 0.0 0.0 0.0
								}
							}
						}
					}
				}
			}
		}
		JOINT UpperLeg_L
		{
			OFFSET -2.19248 -6.46944 0.0
			CHANNELS 6 Xposition Yposition Zposition Zrotation Xrotation Yrotation 
			JOINT LowerLeg_L
			{
				OFFSET 39.0811 0.0 -1.23785e-05
				CHANNELS 6 Xposition Yposition Zposition Zrotation Xrotation Yrotation 
				JOINT Foot_L
				{
					OFFSET 40.9854 0.0 -1.26872e-05
					CHANNELS 6 Xposition Yposition Zposition Zrotation Xrotation Yrotation 
					JOINT Toes_L
					{
						OFFSET 11.7543 0.0 0.0
						CHANNELS 6 Xposition Yposition Zposition Zrotation Xrotation Yrotation 
						End Site
						{
							OFFSET 0.0 0.0 0.0
						}
					}
				}
			}
		}
		JOINT UpperLeg_R
		{
			OFFSET -2.19251 6.46944 0.0
			CHANNELS 6 Xposition Yposition Zposition Zrotation Xrotation Yrotation 
			JOINT LowerLeg_R
			{
				OFFSET -39.0811 -0.00228153 -0.0401928
				CHANNELS 6 Xposition Yposition Zposition Zrotation Xrotation Yrotation 
				JOINT Foot_R
				{
					OFFSET -40.9854 0.0 0.0
					CHANNELS 6 Xposition Yposition Zposition Zrotation Xrotation Yrotation 
					JOINT Toes_R
					{
						OFFSET -11.7543 0.0 0.0
						CHANNELS 6 Xposition Yposition Zposition Zrotation Xrotation Yrotation 
						End Site
						{
							OFFSET 0.0 0.0 0.0
						}
					}
				}
			}
		}
	}
}
MOTION
Frames:	4
Frame Time:	0.0333333
0.000000 0.000000 0.000000 0.000000 0.000000 -0.000000 -2.237870 92.815800 0.685904 87.524200 1.369850 4.207310 15.735700 0.000005 -0.000001 86.707400 85.200700 -85.301200 8.984550 -0.406207 -0.000000 1.825940 -0.623815 2.819760 16.377300 -0.000001 -0.000001 4.442310 2.896300 -0.338484 6.456720 -0.000001 -0.000000 -13.484700 2.357460 1.884170 12.994200 -0.242716 4.980390 -93.266200 10.064800 -71.915900 5.348090 -0.000007 -0.000001 -65.449400 40.709900 -4.940150 24.328600 0.000019 0.000005 10.196400 18.800600 -29.165800 22.291600 -0.000001 0.000005 -14.904600 5.098100 5.153850 12.994500 -0.242716 -4.980390 87.672800 7.038420 -71.651800 -5.348130 -0.000001 -0.000004 -63.791100 43.353100 -8.652680 -24.328900 0.000322 -0.000009 1.944220 4.406580 -23.845200 -22.291500 -0.000108 -0.000004 -7.304360 5.221120 2.188230 -2.192480 -6.469440 -0.000000 -171.222000 -9.699010 1.466050 39.081100 -0.000007 -0.000012 0.018004 -0.055856 17.866300 40.985400 -0.000006 -0.000013 -1.003410 15.249200 -69.524000 11.754300 -0.000000 0.000003 -0.001343 0.187794 -8.958560 -2.192510 6.469440 -0.000001 177.501000 7.858870 -175.715000 -39.081100 -0.002282 -0.040193 0.014514 -0.046026 13.654400 -40.985400 0.000008 0.000006 -5.083850 9.118720 -68.592900 -11.754300 -0.000006 -0.000006 -0.010054 0.271706 -5.534600
0.000000 0.000000 0.000000 0.000000 0.000000 -0.000000 -2.281820 92.777600 0.849648 87.570000 1.888560 4.234380 15.735700 0.000005 -0.000001 85.199500 85.114900 -83.730500 8.984550 -0.406207 -0.000000 1.983320 -0.891201 2.950640 16.377300 -0.000001 -0.000001 4.464710 2.740590 -0.485409 6.456720 -0.000001 -0.000000 -15.325500 2.387920 1.310800 12.994200 -0.242716 4.980390 -93.497700 10.395800 -71.287700 5.348090 -0.000007 -0.000001 -57.321500 45.364300 -9.263770 24.328600 0.000019 0.000005 14.559500 19.204400 -38.291400 22.291600 -0.000001 0.000005 -28.645700 5.142900 4.103180 12.994500 -0.242716 -4.980390 87.461000 7.212400 -70.546900 -5.348130 -0.000001 -0.000004 -58.107600 45.540100 -10.032700 -24.328900 0.000322 -0.000009 3.499370 4.908000 -35.565300 -22.291500 -0.000108 -0.000004 -17.205400 5.107590 4.957790 -2.192480 -6.469440 -0.000000 -171.061000 -10.242500 1.440710 39.081100 -0.000007 -0.000012 0.015329 -0.047061 18.041700 40.985400 -0.000006 -0.000013 -0.860777 16.288900 -69.710700 11.754300 -0.000000 0.000003 -0.001682 0.192297 -8.775520 -2.192510 6.469440 -0.000001 177.266000 9.150880 -175.544000 -39.081100 -0.002282 -0.040193 0.015771 -0.050608 13.808700 -40.985400 0.000008 0.000006 -4.782270 9.867980 -68.834000 -11.754300 -0.000006 -0.000006 -0.010299 0.273523 -5.460260
0.000000 0.000000 0.000000 0.000000 0.000000 -0.000000 -2.323970 92.854900 0.952931 87.592200 2.387900 3.441560 15.735700 0.000005 -0.000001 83.779000 85.509600 -82.234100 8.984550 -0.406207 -0.000000 1.178380 -1.061550 3.098280 16.377300 -0.000001 -0.000001 4.045480 2.599920 -0.714450 6.456720 -0.000001 -0.000000 -16.638200 2.409380 0.505336 12.994200 -0.242716 4.980390 -93.388500 9.556210 -70.371100 5.348090 -0.000007 -0.000001 -46.357900 46.344400 -13.992800 24.328600 0.000019 0.000005 22.076000 16.438400 -55.092800 22.291600 -0.000001 0.000005 -40.519700 5.230490 1.933650 12.994500 -0.242716 -4.980390 87.476300 6.594130 -69.002100 -5.348130 -0.000001 -0.000004 -50.860400 44.736100 -10.464200 -24.328900 0.000322 -0.000009 2.704220 1.878060 -55.283000 -22.291500 -0.000108 -0.000004 -27.727100 4.944480 8.490470 -2.192480 -6.469440 -0.000000 -171.054000 -10.902600 0.993372 39.081100 -0.000007 -0.000012 0.005702 -0.018325 17.284000 40.985400 -0.000006 -0.000013 -0.861602 17.254600 -69.340300 11.754300 -0.000000 0.000003 -0.001449 0.189218 -8.900670 -2.192510 6.469440 -0.000001 177.158000 10.195000 -175.814000 -39.081100 -0.002282 -0.040193 0.005430 -0.009136 12.921600 -40.985400 0.000008 0.000006 -5.672130 10.491600 -67.947200 -11.754300 -0.000006 -0.000006 -0.010332 0.273767 -5.450280
0.000000 0.000000 0.000000 0.000000 0.000000 -0.000000 -2.354970 93.105100 0.891639 87.695000 2.820970 1.433500 15.735700 0.000005 -0.000001 80.654600 86.503500 -79.055600 8.984550 -0.406207 -0.000000 -0.846226 -1.255460 3.187250 16.377300 -0.000001 -0.000001 3.074740 2.483860 -0.999670 6.456720 -0.000001 -0.000000 -16.943900 2.568190 -0.475099 12.994200 -0.242716 4.980390 -93.046500 8.165470 -69.457900 5.348090 -0.000007 -0.000001 -34.296200 41.642900 -18.561100 24.328600 0.000019 0.000005 25.176900 9.004340 -71.586000 22.291600 -0.000001 0.000005 -40.127300 5.208590 2.497980 12.994500 -0.242716 -4.980390 87.745700 5.480100 -67.598400 -5.348130 -0.000001 -0.000004 -41.818900 40.119000 -12.146000 -24.328900 0.000322 -0.000009 -1.082930 -0.240648 -77.305400 -22.291500 -0.000108 -0.000004 -31.454000 4.843480 10.487500 -2.192480 -6.469440 -0.000000 -171.452000 -11.707200 -0.004320 39.081100 -0.000007 -0.000012 0.003908 -0.014559 15.028600 40.985400 -0.000006 -0.000013 -1.133270 18.090900 -68.639900 11.754300 -0.000000 0.000003 -0.002366 0.200833 -8.428330 -2.192510 6.469440 -0.000001 177.059000 11.463700 -176.487000 -39.081100 -0.002282 -0.040193 -0.005105 0.047565 10.066700 -40.985400 0.000008 0.000006 -8.030860 11.478100 -65.482900 -11.754300 -0.000006 -0.000006 -0.010436 0.274537 -5.418790
